<?xml version="1.0" encoding="utf-8"?>
<!-- Generator: Adobe Illustrator 25.2.0, SVG Export Plug-In . SVG Version: 6.00 Build 0)  -->
<svg version="1.1" id="Layer_1" xmlns="http://www.w3.org/2000/svg" xmlns:xlink="http://www.w3.org/1999/xlink" x="0px" y="0px"
	 viewBox="0 0 841.54 360.57" style="enable-background:new 0 0 841.54 360.57;" xml:space="preserve">
<style type="text/css">
	.st0{fill:#333333;}
</style>
<g>
	<g>
		<rect x="102.25" y="39.77" class="st0" width="39.79" height="18.79"/>
		<polygon class="st0" points="187.82,18.18 235.3,18.18 235.3,0 166.2,0 166.2,98.29 187.82,98.29 187.82,57.69 228.99,57.69 
			228.99,40.89 187.82,40.89 		"/>
		<path class="st0" d="M266.66,60.3l12.79-36.07h0.27l12.39,36.07H266.66z M268.72,0l-37.31,98.29h21.9l7.7-21.88h36.76l7.42,21.88
			h22.44L290.88,0H268.72z"/>
		<polygon class="st0" points="61.56,39.65 21.76,39.65 21.76,0 0.16,0 0.16,98.29 21.76,98.29 21.76,58.41 61.56,58.41 
			61.56,98.29 83.18,98.29 83.18,0 61.56,0 		"/>
		<polygon class="st0" points="490.63,67.6 490.36,67.6 467.38,0.01 436.96,0.01 436.96,98.3 457.18,98.3 457.18,29.32 
			457.47,29.32 481.56,98.3 498.2,98.3 522.3,28.63 522.58,28.63 522.58,98.3 542.82,98.3 542.82,0.01 512.4,0.01 		"/>
		<path class="st0" d="M382.44,44.47h-23.69V16.8h23.69c9.63,0,14.87,4.13,14.87,13.63C397.31,40.34,392.07,44.47,382.44,44.47
			 M403.35,52.05v-0.28c10.87-4.41,15.55-13.08,15.55-24.64C418.91,12.26,407.77,0,390.14,0h-52.98v98.29h21.59v-38.4h21.62
			c10.87,0,14.86,4.53,16.38,14.86c1.1,7.85,0.82,17.35,3.46,23.54h21.59c-3.85-5.5-3.72-17.07-4.12-23.27
			C416.98,65.13,413.96,54.8,403.35,52.05"/>
	</g>
	<g>
		<path class="st0" d="M42.72,128.24c6.38,0,12.32,1.02,17.82,3.05c5.5,2.04,10.26,5.09,14.29,9.15c4.02,4.07,7.17,9.16,9.43,15.26
			c2.27,6.1,3.4,13.27,3.4,21.5c0,7.21-0.93,13.87-2.77,19.97c-1.85,6.1-4.65,11.37-8.39,15.81c-3.75,4.44-8.42,7.93-14.01,10.47
			c-5.6,2.54-12.18,3.81-19.77,3.81H0v-99.04h42.72V128.24z M41.2,208.96c3.14,0,6.19-0.51,9.16-1.53c2.96-1.02,5.59-2.7,7.91-5.06
			c2.31-2.36,4.16-5.43,5.55-9.22c1.39-3.79,2.08-8.41,2.08-13.87c0-4.99-0.49-9.5-1.46-13.52s-2.57-7.47-4.79-10.33
			c-2.22-2.87-5.16-5.06-8.81-6.59s-8.16-2.29-13.52-2.29H21.78v62.42H41.2V208.96z"/>
		<path class="st0" d="M126.36,128.24v99.04h-21.78v-99.04L126.36,128.24L126.36,128.24z"/>
		<path class="st0" d="M205.98,226.51c-4.72,1.99-9.48,2.98-14.29,2.98c-7.58,0-14.4-1.32-20.46-3.95
			c-6.06-2.63-11.17-6.26-15.33-10.89c-4.16-4.62-7.35-10.06-9.57-16.3c-2.22-6.24-3.33-12.97-3.33-20.18
			c0-7.4,1.11-14.26,3.33-20.6c2.22-6.33,5.41-11.86,9.57-16.58s9.27-8.41,15.33-11.1c6.06-2.68,12.88-4.02,20.46-4.02
			c5.08,0,10.01,0.76,14.77,2.29c4.76,1.53,9.06,3.77,12.9,6.73c3.84,2.96,7,6.61,9.5,10.96s4.02,9.34,4.58,14.98h-20.81
			c-1.3-5.55-3.79-9.71-7.49-12.48c-3.7-2.77-8.18-4.16-13.46-4.16c-4.9,0-9.06,0.95-12.48,2.84c-3.42,1.9-6.2,4.44-8.32,7.63
			c-2.13,3.19-3.68,6.82-4.65,10.89c-0.97,4.07-1.46,8.28-1.46,12.62c0,4.16,0.49,8.21,1.46,12.14s2.52,7.47,4.65,10.61
			c2.13,3.14,4.9,5.66,8.32,7.56c3.42,1.9,7.58,2.84,12.48,2.84c7.21,0,12.78-1.83,16.71-5.48c3.93-3.65,6.22-8.95,6.87-15.88
			h-21.92v-16.23h41.61v53.54H221.1l-2.22-11.24C215,221.03,210.7,224.52,205.98,226.51z"/>
		<path class="st0" d="M276.17,128.24v99.04h-21.78v-99.04L276.17,128.24L276.17,128.24z"/>
		<path class="st0" d="M289.34,146.54v-18.31h81.14v18.31H340.8v80.73h-21.78v-80.73L289.34,146.54L289.34,146.54z"/>
		<path class="st0" d="M420.28,128.24l37.04,99.04h-22.61l-7.49-22.05h-37.04l-7.77,22.05H360.5l37.45-99.04L420.28,128.24
			L420.28,128.24z M421.53,188.99l-12.48-36.34h-0.28l-12.9,36.34H421.53z"/>
		<path class="st0" d="M489.5,128.24v80.73h48.27v18.31h-70.05v-99.04L489.5,128.24L489.5,128.24z"/>
		<path class="st0" d="M30.65,257.29l23.16,68.11h0.28l21.92-68.11h30.65v99.04H86.28v-70.19H86l-24.27,70.19H44.94l-24.27-69.49
			h-0.28v69.49H0v-99.04L30.65,257.29L30.65,257.29z"/>
		<path class="st0" d="M176.99,257.29l37.03,99.04h-22.61l-7.49-22.05h-37.04l-7.77,22.05h-21.92l37.45-99.04H176.99z
			 M178.24,318.05l-12.48-36.34h-0.28l-12.9,36.34H178.24z"/>
		<path class="st0" d="M277.83,257.29c4.44,0,8.44,0.72,12,2.15s6.61,3.4,9.15,5.89c2.54,2.5,4.48,5.39,5.83,8.67
			c1.34,3.28,2.01,6.82,2.01,10.61c0,5.83-1.23,10.87-3.68,15.12c-2.45,4.25-6.45,7.49-12,9.71v0.28c2.68,0.74,4.9,1.87,6.66,3.4
			s3.19,3.33,4.3,5.41c1.11,2.08,1.92,4.37,2.43,6.87c0.51,2.5,0.85,4.99,1.04,7.49c0.09,1.57,0.18,3.42,0.28,5.55
			c0.09,2.13,0.25,4.3,0.49,6.52c0.23,2.22,0.6,4.32,1.11,6.31c0.51,1.99,1.27,3.68,2.29,5.06h-21.78
			c-1.2-3.14-1.94-6.89-2.22-11.24c-0.28-4.35-0.69-8.51-1.25-12.48c-0.74-5.18-2.31-8.97-4.72-11.37s-6.34-3.61-11.79-3.61H246.2
			v38.7h-21.78v-99.04L277.83,257.29L277.83,257.29z M270.06,302.1c4.99,0,8.74-1.11,11.24-3.33s3.75-5.83,3.75-10.82
			c0-4.81-1.25-8.3-3.75-10.47s-6.24-3.26-11.24-3.26H246.2v27.88H270.06z"/>
		<path class="st0" d="M348.16,257.29v41.06l38.7-41.06h27.19l-38.7,39.12l42.44,59.92h-27.32l-29.82-44.53l-12.48,12.62v31.9
			h-21.78v-99.04h21.77V257.29z"/>
		<path class="st0" d="M502.4,257.29v18.31h-52.3v21.22h47.99v16.92H450.1v24.27h53.4v18.31h-75.18v-99.04h74.08V257.29z"/>
		<path class="st0" d="M512.25,275.6v-18.31h81.14v18.31h-29.68v80.73h-21.78V275.6H512.25z"/>
		<path class="st0" d="M628.34,257.29v99.04h-21.78v-99.04H628.34z"/>
		<path class="st0" d="M670.93,257.29l41.33,66.44h0.28v-66.44h20.39v99.04h-21.78l-41.2-66.3h-0.28v66.3h-20.39v-99.04H670.93z"/>
		<path class="st0" d="M812.55,355.57c-4.72,1.99-9.48,2.98-14.29,2.98c-7.58,0-14.4-1.32-20.46-3.95s-11.17-6.26-15.33-10.89
			c-4.16-4.62-7.35-10.06-9.57-16.3c-2.22-6.24-3.33-12.97-3.33-20.18c0-7.4,1.11-14.26,3.33-20.6c2.22-6.33,5.41-11.86,9.57-16.58
			c4.16-4.72,9.27-8.41,15.33-11.1c6.06-2.68,12.88-4.02,20.46-4.02c5.08,0,10.01,0.76,14.77,2.29s9.06,3.77,12.9,6.73
			c3.84,2.96,7,6.61,9.5,10.96s4.02,9.34,4.58,14.98H819.2c-1.3-5.55-3.79-9.71-7.49-12.48c-3.7-2.78-8.18-4.16-13.45-4.16
			c-4.9,0-9.06,0.95-12.48,2.84c-3.42,1.9-6.2,4.44-8.32,7.63c-2.13,3.19-3.68,6.82-4.65,10.89c-0.97,4.07-1.46,8.28-1.46,12.62
			c0,4.16,0.49,8.21,1.46,12.14c0.97,3.93,2.52,7.47,4.65,10.61c2.13,3.14,4.9,5.66,8.32,7.56s7.58,2.84,12.48,2.84
			c7.21,0,12.78-1.83,16.71-5.48c3.93-3.65,6.22-8.95,6.87-15.88h-21.92v-16.23h41.61v53.54h-13.87l-2.22-11.24
			C821.56,350.09,817.26,353.58,812.55,355.57z"/>
	</g>
</g>
</svg>
