<?xml version="1.0" encoding="utf-8"?>
<!-- Generator: Adobe Illustrator 25.2.0, SVG Export Plug-In . SVG Version: 6.00 Build 0)  -->
<svg version="1.1" id="Layer_1" xmlns="http://www.w3.org/2000/svg" xmlns:xlink="http://www.w3.org/1999/xlink" x="0px" y="0px"
	 viewBox="0 0 841.5 205.2" style="enable-background:new 0 0 841.5 205.2;" xml:space="preserve">
<style type="text/css">
	.st0{fill:#FFFDF5;}
</style>
<g>
	<path class="st0" d="M180.6,110.2c-12.3,0-22.3,10-22.3,22.3s10,22.3,22.3,22.3c12.3,0,22.3-10,22.3-22.3
		C202.4,120.2,192.4,110.2,180.6,110.2z M180.6,143c-5.9,0-10.5-4.5-10.5-10.5c0-5.9,4.5-10.5,10.5-10.5s10.5,4.5,10.5,10.5
		C191.1,137.9,186.1,143,180.6,143z"/>
	<path class="st0" d="M69.1,102.9c0-8.2-6.8-15-15-15c-8.7,0-15,6.8-15,15s6.8,15.5,15,15.5C62.2,118.4,69.1,111.6,69.1,102.9"/>
	<path class="st0" d="M106,114.3c0.9-3.6,1.4-7.3,1.4-11.4l-5-2.8c0-1.8-0.5-3.2-0.5-5l4.1-3.6c-0.9-3.6-1.8-7.3-3.6-10.9l-5.5-0.5
		C96,78.8,95,77,94.1,75.6l2.3-5c-2.3-3.2-4.5-5.9-7.3-8.2l-5,1.8c-1.4-0.9-2.8-2.3-4.1-3.2l0.5-5.5c-3.2-1.8-6.8-3.6-10.5-4.5
		L66,55.2c-1.8-0.5-3.2-0.9-5-0.9l-1.8-5c-3.6-0.5-7.3-0.5-11.4,0l-1.8,5c-1.8,0.5-3.2,0.5-5,0.9L37.3,52c-3.6,1.4-6.8,2.8-10.5,4.5
		l0.5,5.5c-1.4,0.9-2.8,1.8-4.1,3.2l-5-1.8c-2.8,2.3-5.5,5.5-7.8,8.2l2.8,5c-0.9,1.4-1.8,2.8-2.8,4.5L5,81.6
		C3.6,84.7,2.2,88.4,1.4,92l4.1,3.6C5,97.5,5,98.8,5,100.6l-5,2.8c0,3.6,0.5,7.3,1.4,11.4l5.5,0.9c0.5,1.8,0.9,3.2,1.4,5l-3.6,4.5
		c1.4,3.2,3.2,6.8,5.5,9.5l5.9-0.9c0.9,1.4,2.3,2.8,3.2,3.6l-0.9,5.5c2.8,2.3,5.9,4.5,9.1,6.4l4.5-3.2c1.4,0.9,3.2,1.4,4.5,2.3
		l0.9,5.5c3.6,1.4,7.3,1.8,10.9,2.3l3.2-4.5c1.8,0,3.2,0,5,0l3.2,4.5c3.6-0.5,7.3-1.4,10.9-2.3l0.9-5.5c1.4-0.5,3.2-1.4,4.5-2.3
		l4.5,3.2c3.2-1.8,6.4-4.1,9.1-6.8l-1.4-5.5c1.4-1.4,2.3-2.3,3.2-3.6l5.5,0.9c2.3-3.2,4.1-6.4,5.5-9.5l-3.2-4.1
		c0.5-1.4,0.9-3.2,1.4-5L106,114.3z M53.6,133.4c-16.8,0-30.5-13.7-30.5-30.5s13.7-30.5,30.5-30.5s30.5,13.7,30.5,30.5
		S70.5,133.4,53.6,133.4z"/>
	<path class="st0" d="M106,57.4c-10,0.5-15-8.2-15-8.2c-0.5-0.9-2.3-1.4-3.2-0.9c-0.9,0.5-1.4,2.3-0.9,3.2
		c0.5,0.5,6.8,11.4,19.6,10.9c1.4,0,2.3-1.4,2.3-2.3C108.2,58.3,107.3,57.4,106,57.4"/>
	<path class="st0" d="M217,122.5L217,122.5V98.3V53.8c0-3.2-2.8-6.4-6.4-6.4h-6.4v27.3c0,1.4-0.9,2.3-2.3,2.3s-2.3-0.9-2.3-2.3V47.4
		h-10v27.3c0,1.4-0.9,2.3-2.3,2.3c-1.4,0-2.3-0.9-2.3-2.3V47.4h-10v27.3c0,1.4-0.9,2.3-2.3,2.3s-2.3-0.9-2.3-2.3V47.4h-10v27.3
		c0,1.4-0.9,2.3-2.3,2.3s-2.3-0.9-2.3-2.3V47.4H135c-3.2,0-6.4,2.8-6.4,6.4v9.1l-8.2-16.4l5-2.8c1.4-0.5,1.8-1.8,0.9-3.2
		c-0.5-1.4-1.8-1.8-3.2-0.9l-15,7.8c-1.4,0.5-1.8,1.8-0.9,3.2c0.5,1.4,1.8,1.8,3.2,0.9l5-2.8l10,19.1H98.6l0,0
		c0,0.5,0.5,0.5,0.5,0.9l1.8,2.3c0,0-1.8,3.6-2.8,5l0,0c1.4,0,5.9,0.5,5.9,0.5l1.4,2.8c1.8,4.1,3.2,7.8,3.6,11.8l0.5,2.8
		c0,0-3.6,2.8-4.5,3.6c1.4,0.5,5.5,2.8,5.5,2.8v2.8c0,4.1-0.5,8.2-1.4,12.3l-0.5,2.8c0,0-4.1,0.9-5.9,1.4c0.9,1.4,3.6,4.5,3.6,4.5
		l-1.4,2.8c-0.5,0.5-0.5,1.4-0.5,1.8h50c1.4-12.3,10.9-21.8,25-21.8c13.7,0,24.1,9.1,26,21.8h5l0,0C214.3,128.4,217,125.7,217,122.5
		"/>
</g>
<g>
	<rect x="417.8" y="23.7" class="st0" width="22.8" height="10.8"/>
	<polygon class="st0" points="466.8,11.3 494.1,11.3 494.1,0.9 454.5,0.9 454.5,57.3 466.8,57.3 466.8,34 490.4,34 490.4,24.4 
		466.8,24.4 	"/>
	<path class="st0" d="M512,35.5l7.3-20.7h0.2l7.1,20.7H512z M513.2,0.9l-21.4,56.3h12.5l4.4-12.5h21.1l4.3,12.5H547L525.9,0.9H513.2
		z"/>
	<polygon class="st0" points="394.5,23.7 371.7,23.7 371.7,0.9 359.3,0.9 359.3,57.3 371.7,57.3 371.7,34.4 394.5,34.4 394.5,57.3 
		406.9,57.3 406.9,0.9 394.5,0.9 	"/>
	<polygon class="st0" points="640.4,39.7 640.3,39.7 627.1,0.9 609.6,0.9 609.6,57.3 621.2,57.3 621.2,17.7 621.4,17.7 635.2,57.3 
		644.7,57.3 658.6,17.3 658.7,17.3 658.7,57.3 670.3,57.3 670.3,0.9 652.9,0.9 	"/>
	<path class="st0" d="M578.4,26.4h-13.6V10.6h13.6c5.5,0,8.5,2.4,8.5,7.8C586.9,24,583.9,26.4,578.4,26.4 M590.4,30.8v-0.2
		c6.2-2.5,8.9-7.5,8.9-14.1c0-8.5-6.4-15.5-16.5-15.5h-30.4v56.3h12.4v-22h12.4c6.2,0,8.5,2.6,9.4,8.5c0.6,4.5,0.5,9.9,2,13.5H601
		c-2.2-3.2-2.1-9.8-2.4-13.3C598.2,38.3,596.5,32.3,590.4,30.8"/>
</g>
<g>
	<path class="st0" d="M383.7,74.4c3.7,0,7.1,0.6,10.2,1.7c3.2,1.2,5.9,2.9,8.2,5.2c2.3,2.3,4.1,5.2,5.4,8.7
		c1.3,3.5,1.9,7.6,1.9,12.3c0,4.1-0.5,8-1.6,11.4c-1.1,3.5-2.7,6.5-4.8,9.1c-2.1,2.5-4.8,4.5-8,6c-3.2,1.5-7,2.2-11.3,2.2h-24.5
		V74.4H383.7z M382.8,120.7c1.8,0,3.6-0.3,5.2-0.9c1.7-0.6,3.2-1.6,4.5-2.9c1.3-1.4,2.4-3.1,3.2-5.3c0.8-2.2,1.2-4.8,1.2-8
		c0-2.9-0.3-5.4-0.8-7.8c-0.6-2.3-1.5-4.3-2.7-5.9c-1.3-1.6-3-2.9-5-3.8c-2.1-0.9-4.7-1.3-7.8-1.3h-8.9v35.8H382.8z"/>
	<path class="st0" d="M431.6,74.4v56.8h-12.5V74.4H431.6z"/>
	<path class="st0" d="M477.3,130.8c-2.7,1.1-5.4,1.7-8.2,1.7c-4.3,0-8.3-0.8-11.7-2.3c-3.5-1.5-6.4-3.6-8.8-6.2
		c-2.4-2.6-4.2-5.8-5.5-9.3c-1.3-3.6-1.9-7.4-1.9-11.6c0-4.2,0.6-8.2,1.9-11.8c1.3-3.6,3.1-6.8,5.5-9.5c2.4-2.7,5.3-4.8,8.8-6.4
		c3.5-1.5,7.4-2.3,11.7-2.3c2.9,0,5.7,0.4,8.5,1.3c2.7,0.9,5.2,2.2,7.4,3.9c2.2,1.7,4,3.8,5.4,6.3c1.4,2.5,2.3,5.4,2.6,8.6h-11.9
		c-0.7-3.2-2.2-5.6-4.3-7.2c-2.1-1.6-4.7-2.4-7.7-2.4c-2.8,0-5.2,0.5-7.2,1.6c-2,1.1-3.6,2.5-4.8,4.4c-1.2,1.8-2.1,3.9-2.7,6.2
		c-0.6,2.3-0.8,4.7-0.8,7.2c0,2.4,0.3,4.7,0.8,7c0.6,2.3,1.4,4.3,2.7,6.1c1.2,1.8,2.8,3.2,4.8,4.3c2,1.1,4.3,1.6,7.2,1.6
		c4.1,0,7.3-1,9.6-3.1c2.3-2.1,3.6-5.1,3.9-9.1H470v-9.3h23.9v30.7h-8l-1.3-6.4C482.4,127.6,480,129.6,477.3,130.8z"/>
	<path class="st0" d="M517.5,74.4v56.8H505V74.4H517.5z"/>
	<path class="st0" d="M525,84.9V74.4h46.5v10.5h-17v46.3H542V84.9H525z"/>
	<path class="st0" d="M600.1,74.4l21.2,56.8h-13l-4.3-12.6h-21.2l-4.5,12.6h-12.6l21.5-56.8H600.1z M600.8,109.2l-7.2-20.8h-0.2
		l-7.4,20.8H600.8z"/>
	<path class="st0" d="M639.8,74.4v46.3h27.7v10.5h-40.1V74.4H639.8z"/>
	<path class="st0" d="M376.8,148.4l13.3,39h0.2l12.6-39h17.6v56.8h-11.7v-40.2h-0.2l-13.9,40.2h-9.6L371,165.3h-0.2v39.8h-11.7
		v-56.8H376.8z"/>
	<path class="st0" d="M460.6,148.4l21.2,56.8h-13l-4.3-12.6h-21.2l-4.5,12.6h-12.6l21.5-56.8H460.6z M461.4,183.2l-7.2-20.8H454
		l-7.4,20.8H461.4z"/>
	<path class="st0" d="M518.4,148.4c2.5,0,4.8,0.4,6.9,1.2c2,0.8,3.8,1.9,5.2,3.4c1.5,1.4,2.6,3.1,3.3,5c0.8,1.9,1.2,3.9,1.2,6.1
		c0,3.3-0.7,6.2-2.1,8.7c-1.4,2.4-3.7,4.3-6.9,5.6v0.2c1.5,0.4,2.8,1.1,3.8,1.9c1,0.9,1.8,1.9,2.5,3.1c0.6,1.2,1.1,2.5,1.4,3.9
		c0.3,1.4,0.5,2.9,0.6,4.3c0.1,0.9,0.1,2,0.2,3.2c0.1,1.2,0.1,2.5,0.3,3.7c0.1,1.3,0.3,2.5,0.6,3.6c0.3,1.1,0.7,2.1,1.3,2.9h-12.5
		c-0.7-1.8-1.1-3.9-1.3-6.4c-0.2-2.5-0.4-4.9-0.7-7.2c-0.4-3-1.3-5.1-2.7-6.5c-1.4-1.4-3.6-2.1-6.8-2.1h-12.5v22.2h-12.5v-56.8
		H518.4z M514,174.1c2.9,0,5-0.6,6.4-1.9c1.4-1.3,2.1-3.3,2.1-6.2c0-2.8-0.7-4.8-2.1-6c-1.4-1.2-3.6-1.9-6.4-1.9h-13.7v16H514z"/>
	<path class="st0" d="M558.7,148.4v23.5l22.2-23.5h15.6l-22.2,22.4l24.3,34.3H583l-17.1-25.5l-7.2,7.2v18.3h-12.5v-56.8H558.7z"/>
	<path class="st0" d="M647.2,148.4v10.5h-30v12.2h27.5v9.7h-27.5v13.9h30.6v10.5h-43.1v-56.8H647.2z"/>
	<path class="st0" d="M652.8,158.9v-10.5h46.5v10.5h-17v46.3h-12.5v-46.3H652.8z"/>
	<path class="st0" d="M719.3,148.4v56.8h-12.5v-56.8H719.3z"/>
	<path class="st0" d="M743.7,148.4l23.7,38.1h0.2v-38.1h11.7v56.8h-12.5l-23.6-38H743v38h-11.7v-56.8H743.7z"/>
	<path class="st0" d="M824.9,204.7c-2.7,1.1-5.4,1.7-8.2,1.7c-4.3,0-8.3-0.8-11.7-2.3c-3.5-1.5-6.4-3.6-8.8-6.2
		c-2.4-2.6-4.2-5.8-5.5-9.3c-1.3-3.6-1.9-7.4-1.9-11.6c0-4.2,0.6-8.2,1.9-11.8c1.3-3.6,3.1-6.8,5.5-9.5c2.4-2.7,5.3-4.8,8.8-6.4
		c3.5-1.5,7.4-2.3,11.7-2.3c2.9,0,5.7,0.4,8.5,1.3c2.7,0.9,5.2,2.2,7.4,3.9c2.2,1.7,4,3.8,5.4,6.3c1.4,2.5,2.3,5.4,2.6,8.6h-11.9
		c-0.7-3.2-2.2-5.6-4.3-7.2c-2.1-1.6-4.7-2.4-7.7-2.4c-2.8,0-5.2,0.5-7.2,1.6c-2,1.1-3.6,2.5-4.8,4.4c-1.2,1.8-2.1,3.9-2.7,6.2
		c-0.6,2.3-0.8,4.7-0.8,7.2c0,2.4,0.3,4.7,0.8,7c0.6,2.3,1.4,4.3,2.7,6.1c1.2,1.8,2.8,3.2,4.8,4.3c2,1.1,4.3,1.6,7.2,1.6
		c4.1,0,7.3-1,9.6-3.1c2.3-2.1,3.6-5.1,3.9-9.1h-12.6v-9.3h23.9v30.7h-8l-1.3-6.4C830.1,201.6,827.6,203.6,824.9,204.7z"/>
</g>
<rect x="284.5" class="st0" width="7.1" height="206.1"/>
</svg>
